<?xml version="1.0" encoding="UTF-8"?>
<!DOCTYPE svg PUBLIC "-//W3C//DTD SVG 1.1//EN" "http://www.w3.org/Graphics/SVG/1.1/DTD/svg11.dtd">
<!-- Creator: CorelDRAW -->
<svg xmlns="http://www.w3.org/2000/svg" xml:space="preserve" width="600px" height="600px" style="shape-rendering:geometricPrecision; text-rendering:geometricPrecision; image-rendering:optimizeQuality; fill-rule:evenodd; clip-rule:evenodd"
viewBox="0 0 600 600"
 xmlns:xlink="http://www.w3.org/1999/xlink">
 <defs>
  <style type="text/css">
   <![CDATA[
    .str0 {stroke:#373435;stroke-width:0.500032}
    .fil0 {fill:#00A859}
    .fil1 {fill:#FEFEFE;fill-rule:nonzero}
   ]]>
  </style>
 </defs>
 <g id="Layer_x0020_1">
  <metadata id="CorelCorpID_0Corel-Layer"/>
  <rect class="fil0 str0" width="600" height="600"/>
  <path class="fil1" d="M147.159 564.249l-31.8504 -169.771c-3.0138,-16.287 -7.20907,-28.4332 -12.5867,-36.7149 -5.37732,-8.14337 -11.7,-12.2842 -18.9683,-12.2842l-8.09575 0 0 218.77 -42.605 0 0 -528.499 65.9464 0c12.4685,0 23.7549,2.48457 33.9188,7.45342 10.1636,4.96885 18.8501,13.2503 26.0002,24.8445 7.15011,11.594 12.6456,26.7769 16.5458,45.2721 3.84095,18.6335 5.7909,41.4077 5.7909,68.4607 0,19.3235 -1.24101,36.5766 -3.66378,51.7592 -2.42277,15.0449 -5.7909,28.0193 -10.2226,38.9231 -4.37301,10.904 -9.57317,19.7376 -15.6594,26.5011 -6.02731,6.76318 -12.6456,11.4559 -19.7958,14.2166 5.55449,2.62233 10.5772,9.9377 15.2456,21.9458 4.60914,12.0081 9.21827,29.3995 13.8274,52.0356l36.1644 177.086 -49.9918 0zm-10.5775 -372.806c0,-25.9486 -3.54529,-44.4441 -10.5772,-55.762 -7.03219,-11.4562 -17.6094,-17.1153 -31.6732,-17.1153l-18.6732 0 0 149.343 17.314 0c6.55909,0 12.5274,-1.65628 17.9048,-4.96885 5.37732,-3.17452 9.9275,-8.00561 13.7684,-14.4927 3.78199,-6.48709 6.73654,-14.4927 8.8047,-24.0163 2.06816,-9.66189 3.13172,-20.5659 3.13172,-32.9882z"/>
  <path id="1" class="fil1" d="M386.067 204.003c0,27.4672 -1.94995,52.8636 -5.9091,76.1899 -3.90019,23.3263 -9.75005,43.4781 -17.4912,60.4551 -7.74114,16.977 -17.373,30.2275 -28.8958,39.6133 -11.5228,9.38551 -24.9367,14.2166 -40.1825,14.2166l-21.6275 0 0 169.771 -42.9007 0 0 -528.499 66.301 0c14.6548,0 27.5961,3.72671 38.8233,11.0421 11.2867,7.45342 20.7411,18.3572 28.4233,32.5738 7.68189,14.3547 13.4728,31.8838 17.4912,52.8639 3.95915,20.8417 5.96806,44.72 5.96806,71.773zm-44.6732 6.76318c0,-13.9405 -0.945638,-26.6389 -2.83663,-38.0948 -1.94995,-11.4562 -4.84554,-21.2559 -8.68649,-29.3995 -3.84066,-8.00533 -8.74545,-14.2166 -14.6546,-18.6333 -5.85014,-4.2789 -12.8231,-6.34932 -20.9186,-6.34932l-22.3367 0 0 193.649 23.6957 0c7.38681,0 13.9459,-2.34624 19.5596,-7.03928 5.67269,-4.8308 10.4593,-11.594 14.3002,-20.4276 3.89991,-8.97166 6.7955,-19.5996 8.86366,-32.0219 2.0092,-12.4223 3.0138,-26.2247 3.0138,-41.6838z"/>
  <polygon id="12" class="fil1" points="519.91,118.566 519.91,564.249 476.241,564.249 476.241,118.566 414.254,118.566 414.254,35.7506 581.838,35.7506 581.838,118.566 "/>
 </g>
</svg>
